<?xml version="1.0" encoding="UTF-8"?><svg id="a" xmlns="http://www.w3.org/2000/svg" xmlns:xlink="http://www.w3.org/1999/xlink" viewBox="0 0 464.27 512"><defs><style>.u,.v{stroke:#000;stroke-linecap:round;stroke-linejoin:round;stroke-width:12px;}.u,.w{fill:none;}.x{clip-path:url(#g);}.v,.y{fill:#7266ff;}.z{fill:#efefef;}.aa{fill:#a4afc1;}</style><clipPath id="g"><rect class="w" x="39.35" y="53.89" width="362.74" height="362.74"/></clipPath></defs><g><path class="z" d="M372.37,52.67C270.7,52.67,200.88,0,151.89,0S0,28.16,0,253.55,138.42,512,192.31,512c252.34,.01,360.13-459.33,180.06-459.33Z"/><path class="aa" d="M401.8,24.49h14.7v29.4h-14.7V24.49Z"/><path class="aa" d="M434.87,68.59h29.4v14.7h-29.4v-14.7Z"/></g><g id="b"><g id="c"><path id="d" class="u" d="M239.56,216.46l49.76-49.76"/></g><g id="e"><path id="f" class="u" d="M158.96,297.06l46.36-46.36"/></g><g class="x"><g id="h"><g id="i"><g><g><path class="y" d="M390.81,356.29c7.74,7.16,7.98,19.33,.53,26.78l-19.4,19.4c-7.46,7.45-19.62,7.22-26.78-.53L139.94,179.99l28.91-28.91,221.96,205.21Zm-95.77-74.98c2.7-1.96,5.5-4.77,2.24-7.78-1.26-1.17-2.48-2.09-3.62-3.44-1.37-1.62-2.77-3.03-4.67-4.01-1.24-.63-2.93-.37-3.63,.96-.2,.38-.45,.73-.72,1.05-.25,.12-.47,.28-.66,.49-.18,.2-.34,.41-.46,.64-1.25,1.07-2.74,1.96-3.91,2.96-1.7,1.47-3.02,3.21-3.46,5.34-1.24,.11-1.98,.96-2.21,1.95-1.25,.64-2.38,1.42-3.13,2.67-.15,.24-.24,.49-.3,.74-.86-.04-1.73,.3-2.33,1.2-2.18,3.23-5.14,5.85-8.34,8.06-.7,.48-1.06,1.14-1.16,1.82-1.78,1.13-3.85,2.73-3.9,5.05-.05,2.38,1.97,4.52,3.36,6.21,1.4,1.7,2.91,4.22,5.17,4.78,2.9,.72,4.39-.9,5.67-3.09,.02-.03,.03-.05,.04-.07,.09-.01,.22-.04,.43-.11,.62-.21,1.12-.32,1.66-.71,1.14-.82,1.54-2.09,2.38-3.15,.96-1.2,2.14-1.99,3.25-3.01,.52-.47,1.87-2.93,2.05-3h0c.23-.09,.45-.17,.64-.27,.94-.5,1.31-1.41,1.25-2.33,.18-.14,.35-.28,.53-.44,1.53-1.41,2.66-2.68,4.42-3.84,1.89-1.25,2.89-2.79,4.29-4.51,1.42-1.72,3.33-2.87,5.12-4.16Z"/><path class="y" d="M220.6,75.78c2.34,1.9,1.28,5.66-1.7,6.09-15.01,2.16-46.4,10.36-39.16,40.75,2.08,8.72-.35,17.9-6.69,24.25l-4.2,4.21-28.91,28.91-4.02,4.02c-3.43,3.43-8.98,3.43-12.41,0l-36.26-36.27c-3.59-3.59-3.59-9.42,0-13.01l46.97-46.97c28.58-28.58,60.35-33.14,86.39-11.98Z"/></g><g><path class="u" d="M168.85,151.08l4.2-4.21c6.34-6.34,8.77-15.53,6.69-24.25-7.24-30.4,24.15-38.59,39.16-40.75,2.98-.43,4.04-4.2,1.7-6.09-26.05-21.16-57.81-16.6-86.39,11.98l-46.97,46.97c-3.59,3.59-3.59,9.42,0,13.01l36.26,36.27c3.43,3.43,8.99,3.43,12.41,0l4.02-4.02"/><path class="u" d="M139.94,179.99l205.21,221.96c7.16,7.75,19.32,7.98,26.78,.53l19.4-19.4c7.45-7.45,7.22-19.62-.53-26.78L168.85,151.08l-28.91,28.91Z"/></g></g></g><g id="j"><path id="k" class="u" d="M170.06,248.92l-9.75,9.75-20.75,20.75c-15.08,15.08-35.12,13.84-45.37,15.53-11.59,1.91-22.79,7.3-31.7,16.22-22.94,22.94-22.74,60.25,.6,82.94,22.11,21.5,57.72,21.89,80.27,.85,9.75-9.1,15.63-20.85,17.68-33.01,1.74-10.35,.49-30.43,15.56-45.49l20.75-20.75,8.25-8.25"/><g><path class="y" d="M131.88,344.86v14.96c0,2.69-1.07,5.27-2.97,7.17l-10.58,10.58c-1.9,1.9-4.48,2.97-7.17,2.97h-14.96c-2.69,0-5.27-1.07-7.17-2.97l-10.58-10.58c-1.9-1.9-2.97-4.48-2.97-7.17v-14.96c0-2.69,1.07-5.27,2.97-7.17l10.57-10.58c1.9-1.9,4.48-2.97,7.17-2.97h14.96c2.69,0,5.27,1.07,7.17,2.97l10.58,10.58c1.9,1.9,2.97,4.48,2.97,7.17Z"/><path class="u" d="M128.91,366.99l-10.58,10.58c-1.9,1.9-4.48,2.97-7.17,2.97h-14.96c-2.69,0-5.27-1.07-7.17-2.97l-10.58-10.58c-1.9-1.9-2.97-4.48-2.97-7.17v-14.96c0-2.69,1.07-5.27,2.97-7.17l10.57-10.58c1.9-1.9,4.48-2.97,7.17-2.97h14.96c2.69,0,5.27,1.07,7.17,2.97l10.58,10.58c1.9,1.9,2.97,4.48,2.97,7.17v14.96c0,2.69-1.07,5.27-2.97,7.17Z"/></g></g><g id="l"><path id="m" class="u" d="M276.52,216.53l5.15-5.15,26.42-26.42c8.63-8.63,21.13-11.86,33.02-9.07,14.76,3.46,30.08-3,37.9-16.01l13.61-22.66c4.12-6.86,4.49-15.34,.97-22.54-4.19-4.19-11.04-4.19-15.22,0l-23.18,23.18c-1.94,1.94-4.54,3.07-7.29,3.17l-6.7,.24c-3.01,.11-5.94-1.04-8.07-3.17l-14.56-14.56c-1.98-1.98-3.12-4.64-3.18-7.44l-.17-7.62c-.06-2.96,1.08-5.82,3.18-7.91l22.92-22.92c4.19-4.19,4.19-11.04,0-15.22-7.19-3.52-15.67-3.15-22.54,.97l-22.66,13.61c-13.12,7.88-19.48,23.36-15.93,38.25,2.81,11.79-.69,24.21-9.27,32.79l-26.3,26.3-6.91,6.91"/></g><g id="n"><path id="o" class="u" d="M103.28,194.99l15.61-15.61"/></g><g id="p"><g><path class="y" d="M107.68,199.38c3.55,3.55,3.55,9.31,0,12.87l-11.37,11.37c-3.55,3.55-9.32,3.55-12.87,0l-36.11-36.11c-3.55-3.55-3.55-9.31,0-12.87l11.37-11.37c3.55-3.55,9.31-3.55,12.87,0l3.21,3.22,32.89,32.89Z"/><g><path class="u" d="M58.7,163.27l-11.37,11.37c-3.55,3.55-3.55,9.31,0,12.87l36.11,36.11c3.55,3.55,9.32,3.55,12.87,0l11.37-11.37c3.55-3.55,3.55-9.31,0-12.87l-32.89-32.89-3.21-3.22c-3.55-3.55-9.31-3.55-12.87,0Z"/><line class="u" x1="90.39" y1="150.88" x2="74.78" y2="166.49"/></g></g></g><g id="q"><path id="r" class="v" d="M304.2,276.22l-39.12,39.12"/></g><g id="s"><path id="t" class="v" d="M249.9,298.91l37.88-37.88"/></g></g></g></g></svg>