<?xml version="1.0" encoding="iso-8859-1"?>
<!-- Generator: Adobe Illustrator 19.0.0, SVG Export Plug-In . SVG Version: 6.00 Build 0)  -->
<svg version="1.1" id="Layer_1" xmlns="http://www.w3.org/2000/svg" xmlns:xlink="http://www.w3.org/1999/xlink" x="0px" y="0px"
	 viewBox="0 0 501.999 501.999" style="enable-background:new 0 0 501.999 501.999;" xml:space="preserve">
<g>
	<g>
		<path style="fill:#FFF9E6;" d="M464.432,84.39H90.926c-15.226,0-27.568,12.343-27.568,27.568v149.425
			c9.911-3.973,18.906-9.747,26.578-16.919c15.277,14.282,35.793,23.028,58.356,23.028c8.009,0,15.76-1.105,23.112-3.165
			c0.07,2.03,0.108,4.069,0.108,6.116c0,26.311-5.844,51.252-16.276,73.622h309.197c15.225,0,27.568-12.343,27.568-27.568V111.958
			C492,96.733,479.657,84.39,464.432,84.39z"/>
		<path style="fill:#5CC9C1;" d="M171.403,264.327c-7.351,2.06-15.102,3.165-23.112,3.165c-22.563,0-43.079-8.746-58.356-23.028
			c-7.672,7.172-16.667,12.946-26.578,16.919c-9.823,3.938-20.546,6.109-31.778,6.109c-7.422,0-14.623-0.947-21.489-2.725
			c-0.06,1.885-0.091,3.778-0.091,5.677c0,61.859,32.202,116.193,80.755,147.164c27.901-17.797,50.385-43.32,64.479-73.542
			c10.432-22.37,16.276-47.31,16.276-73.622C171.511,268.396,171.473,266.358,171.403,264.327z"/>
	</g>
	<path style="fill:#5CC9C1;" d="M426.636,247.132c-7.189,0-13.813,2.407-19.12,6.453c-5.307-4.046-11.931-6.453-19.12-6.453
		c-17.436,0-31.57,14.134-31.57,31.57s14.134,31.57,31.57,31.57c7.189,0,13.813-2.407,19.12-6.453
		c5.307,4.046,11.931,6.453,19.12,6.453c17.436,0,31.57-14.134,31.57-31.57C458.207,261.266,444.072,247.132,426.636,247.132z"/>
	<g>
		<path d="M464.432,74.39H90.926c-20.715,0-37.568,16.853-37.568,37.568v142.333c-7.029,2.119-14.326,3.201-21.778,3.201
			c-6.43,0-12.817-0.81-18.982-2.406c-2.944-0.764-6.07-0.145-8.501,1.676c-2.432,1.821-3.904,4.649-4.001,7.686
			C0.032,266.455,0,268.472,0,270.444c0,63.328,31.917,121.494,85.377,155.595c1.64,1.046,3.509,1.569,5.378,1.569
			s3.738-0.523,5.378-1.569c27.903-17.799,50.387-42.593,65.346-71.973h302.952c20.715,0,37.568-16.853,37.568-37.568v-204.54
			C502,91.243,485.146,74.39,464.432,74.39z M90.754,405.599c-42.684-29.592-68.661-76.958-70.633-128.791
			c3.793,0.455,7.622,0.684,11.459,0.684c12.257,0,24.201-2.297,35.5-6.827c8.227-3.298,15.884-7.683,22.857-13.082
			c16.663,12.896,37.07,19.908,58.355,19.908c4.397,0,8.777-0.3,13.107-0.896c-0.801,22.025-5.913,43.271-15.228,63.243
			C133.812,366.344,114.727,388.961,90.754,405.599z M482,316.497c0,9.687-7.881,17.568-17.568,17.568H170.229
			c7.493-20.314,11.282-41.65,11.282-63.622c0-2.105-0.039-4.28-0.114-6.463c-0.106-3.066-1.614-5.914-4.091-7.725
			c-2.476-1.812-5.646-2.385-8.602-1.558c-6.615,1.854-13.483,2.793-20.413,2.793c-19.202,0-37.501-7.221-51.527-20.333
			c-3.844-3.593-9.814-3.593-13.658,0c-3.055,2.855-6.31,5.434-9.749,7.725V111.958c0-9.687,7.881-17.568,17.568-17.568H464.43
			c9.688,0,17.568,7.881,17.568,17.568v204.539H482z"/>
		<path d="M140.071,308.599c3.905-3.905,3.905-10.237,0-14.142s-10.237-3.905-14.142,0l-43.892,43.892l-19.773-19.773
			c-3.905-3.905-10.237-3.905-14.142,0s-3.906,10.237,0,14.142l26.762,26.762c1.953,1.953,4.512,2.929,7.071,2.929
			c2.114,0,4.222-0.677,5.994-2.009L140.071,308.599z"/>
		<path d="M140.273,202.449h-20c-5.523,0-10,4.477-10,10s4.477,10,10,10h20c5.523,0,10-4.477,10-10S145.796,202.449,140.273,202.449
			z"/>
		<path d="M384.302,212.449c0-5.523-4.478-10-10-10h-39.005c-5.522,0-10,4.477-10,10s4.478,10,10,10h39.005
			C379.824,222.449,384.302,217.973,384.302,212.449z"/>
		<path d="M296.292,202.449h-39.005c-5.523,0-10,4.477-10,10s4.477,10,10,10h39.005c5.522,0,10-4.477,10-10
			S301.814,202.449,296.292,202.449z"/>
		<path d="M228.283,212.449c0-5.523-4.477-10-10-10h-39.005c-5.523,0-10,4.477-10,10s4.477,10,10,10h39.005
			C223.806,222.449,228.283,217.973,228.283,212.449z"/>
		<path d="M413.307,222.449h20c5.522,0,10-4.477,10-10s-4.478-10-10-10h-20c-5.522,0-10,4.477-10,10
			S407.784,222.449,413.307,222.449z"/>
		<path d="M262.561,282.486h-53.357c-5.523,0-10,4.477-10,10s4.477,10,10,10h53.357c5.522,0,10-4.477,10-10
			S268.083,282.486,262.561,282.486z"/>
		<path d="M187.188,172.432v-40.018c0-5.523-4.477-10-10-10h-56.025c-5.523,0-10,4.477-10,10v40.018c0,5.523,4.477,10,10,10h56.025
			C182.711,182.432,187.188,177.954,187.188,172.432z M167.188,162.432h-36.025v-20.018h36.025L167.188,162.432L167.188,162.432z"/>
		<path d="M426.637,237.132c-6.755,0-13.251,1.597-19.12,4.654c-5.869-3.057-12.365-4.654-19.12-4.654
			c-22.922,0-41.57,18.648-41.57,41.57s18.648,41.57,41.57,41.57c6.755,0,13.251-1.597,19.12-4.653
			c5.869,3.056,12.365,4.653,19.12,4.653c22.922,0,41.57-18.648,41.57-41.57S449.559,237.132,426.637,237.132z M405.066,278.702
			c0-3.555,0.86-6.962,2.45-9.996c1.59,3.035,2.45,6.441,2.45,9.996s-0.86,6.962-2.45,9.996
			C405.926,285.664,405.066,282.257,405.066,278.702z M390.976,300.121c-0.85,0.101-1.71,0.151-2.579,0.151
			c-11.894,0-21.57-9.676-21.57-21.57s9.677-21.57,21.57-21.57c0.869,0,1.729,0.051,2.579,0.151
			c-3.835,6.363-5.909,13.714-5.909,21.419S387.141,293.758,390.976,300.121z M426.637,300.272c-0.869,0-1.729-0.051-2.579-0.151
			c3.835-6.363,5.909-13.713,5.909-21.418s-2.074-15.056-5.909-21.419c0.85-0.101,1.71-0.151,2.579-0.151
			c11.894,0,21.57,9.676,21.57,21.57C448.207,290.596,438.53,300.272,426.637,300.272z"/>
	</g>
</g>
<g>
</g>
<g>
</g>
<g>
</g>
<g>
</g>
<g>
</g>
<g>
</g>
<g>
</g>
<g>
</g>
<g>
</g>
<g>
</g>
<g>
</g>
<g>
</g>
<g>
</g>
<g>
</g>
<g>
</g>
</svg>
