<svg id="Icons" height="512" viewBox="0 0 60 60" width="512" xmlns="http://www.w3.org/2000/svg"><path d="m2.463 18.5a.5.5 0 0 1 -.283-.912l10.3-7.078-11.2 6.462a.5.5 0 0 1 -.523-.851l6.075-3.976-5.552 3.205a.5.5 0 0 1 -.53-.85l7.835-5.288-7.305 4.217a.5.5 0 0 1 -.526-.85l4.293-2.841-3.767 2.175a.5.5 0 0 1 -.526-.85l2.317-1.537-1.791 1.035a.5.5 0 0 1 -.525-.85l.375-.248a.5.5 0 0 1 -.4-.894l3.502-2.569-2.952 1.7a.5.5 0 0 1 -.57-.816l3.032-2.531-2.462 1.42a.5.5 0 0 1 -.561-.823l.381-.305a.512.512 0 0 1 -.454-.175.5.5 0 0 1 0-.645l.928-1.09a.5.5 0 0 1 -.21-.935l2.05-1.18a.5.5 0 0 1 .631.757l-.76.894 2.898-1.671a.5.5 0 0 1 .561.823l-.2.158 1.703-.981a.5.5 0 0 1 .57.816l-3.03 2.53 5.801-3.346a.5.5 0 0 1 .546.836l-3.5 2.572 5.903-3.408a.5.5 0 0 1 .525.849l-.018.013 1.494-.862a.5.5 0 0 1 .526.849l-2.314 1.532 4-2.311a.5.5 0 0 1 .526.85l-4.3 2.843 5.4-3.118a.5.5 0 0 1 .53.847l-7.826 5.291 8.744-5.048a.5.5 0 0 1 .524.851l-6.071 3.973 6.7-3.866a.5.5 0 0 1 .533.845l-10.3 7.079 11.4-6.582a.5.5 0 0 1 .529.848l-6.717 4.493 7.878-4.546a.5.5 0 0 1 .529.846l-6.133 4.138 8.34-4.814a.5.5 0 0 1 .54.84l-8.223 5.85 11.588-6.69a.5.5 0 0 1 .538.841l-7.821 5.494 10.975-6.335a.5.5 0 0 1 .537.841l-7.788 5.467 10.928-6.308a.5.5 0 0 1 .527.848l-5.025 3.352 7.273-4.2a.5.5 0 0 1 .525.849l-4.249 2.806 6.339-3.655a.5.5 0 0 1 .538.84l-8 5.65 11.242-6.49a.5.5 0 0 1 .535.843l-7.191 4.972 10.076-5.815a.5.5 0 0 1 .521.852l-1.43.923 3.074-1.775a.5.5 0 0 1 .521.853l-.8.511 2.023-1.164a.5.5 0 0 1 .54.84l-7.949 5.66 8.948-5.165a.5.5 0 0 1 .543.838l-6.506 4.706 6.338-3.659a.5.5 0 0 1 .528.847l-.444.3a.507.507 0 0 1 .588.2.5.5 0 0 1 -.12.676l-2.986 2.224 2.443-1.41a.5.5 0 0 1 .566.82l-2.144 1.744 1.583-.913a.5.5 0 0 1 .578.811l-.722.627.149-.086a.5.5 0 0 1 .655.725l-.582.806a.5.5 0 0 1 .432.9l-1.947 1.109a.5.5 0 0 1 -.655-.725l.573-.794-2.636 1.521a.5.5 0 0 1 -.578-.81l.724-.628-2.495 1.439a.5.5 0 0 1 -.565-.82l2.142-1.743-4.444 2.565a.5.5 0 0 1 -.549-.834l2.983-2.219-5.3 3.057a.5.5 0 0 1 -.528-.847l.353-.238-1.875 1.086a.5.5 0 0 1 -.543-.838l6.507-4.707-9.607 5.547a.5.5 0 0 1 -.54-.84l7.949-5.66-11.263 6.5a.5.5 0 0 1 -.52-.853l.8-.516-2.374 1.37a.5.5 0 0 1 -.52-.852l1.431-.924-3.079 1.777a.5.5 0 0 1 -.534-.844l7.193-4.97-10.078 5.818a.5.5 0 0 1 -.538-.841l8-5.649-11.249 6.492a.5.5 0 0 1 -.525-.85l4.247-2.8-6.336 3.657a.5.5 0 0 1 -.527-.849l5.026-3.35-7.276 4.2a.5.5 0 0 1 -.537-.842l7.789-5.468-10.933 6.307a.5.5 0 0 1 -.537-.842l7.824-5.493-10.981 6.337a.5.5 0 0 1 -.54-.84l8.223-5.85-11.591 6.692a.5.5 0 0 1 -.53-.847l6.128-4.135-8.632 4.984a.5.5 0 0 1 -.528-.849l6.723-4.5-9.259 5.35a.494.494 0 0 1 -.25.068z" fill="#e59015"/><path d="m8.592 16.5a.5.5 0 0 1 -.341-.866l3.186-2.965-5.157 2.975a.5.5 0 0 1 -.6-.793l2.425-2.333-1.825 1.055a.5.5 0 0 1 -.631-.757l.923-1.083a.5.5 0 0 1 -.21-.93l2.049-1.183a.5.5 0 0 1 .631.757l-.751.881 2.876-1.658a.5.5 0 0 1 .649.131.5.5 0 0 1 -.052.662l-2.427 2.332 5.416-3.125a.5.5 0 0 1 .591.8l-3.188 2.967 6.524-3.767a.5.5 0 0 1 .55.832l-1.43 1.075 3.311-1.907a.5.5 0 0 1 .567.819l-2.531 2.071 5.008-2.89a.5.5 0 0 1 .591.8l-3.185 2.972 6.532-3.772a.5.5 0 0 1 .548.834l-1.083.8 2.842-1.634a.5.5 0 0 1 .591.8l-3.177 2.959 6.507-3.759a.5.5 0 0 1 .565.821l-2.4 1.937 4.782-2.758a.5.5 0 0 1 .581.807l-3 2.645 5.982-3.452a.5.5 0 0 1 .565.821l-2.435 1.979 4.846-2.8a.5.5 0 0 1 .67.161.5.5 0 0 1 -.128.678l-.124.088 1.607-.927a.5.5 0 0 1 .545.836l-.636.464 2.259-1.3a.5.5 0 0 1 .564.822l-2.327 1.868 4.647-2.682a.5.5 0 0 1 .589.8l-3.125 2.876 4.634-2.675a.5.5 0 0 1 .552.831l-.207.158.192-.111a.5.5 0 0 1 .611.779l-1.468 1.534 1.065-.614a.5.5 0 0 1 .643.741l-.37.473a.5.5 0 0 1 .24.933l-1.862 1.067a.5.5 0 0 1 -.628-.1.5.5 0 0 1 -.016-.637l.254-.324-1.847 1.066a.5.5 0 0 1 -.612-.778l1.461-1.527-4 2.309a.5.5 0 0 1 -.553-.831l.211-.16-1.718.992a.5.5 0 0 1 -.589-.8l3.126-2.877-6.376 3.681a.5.5 0 0 1 -.564-.822l2.326-1.867-4.664 2.691a.5.5 0 0 1 -.544-.836l.639-.468-2.261 1.305a.5.5 0 0 1 -.542-.839l.125-.089-1.606.926a.5.5 0 0 1 -.565-.821l2.436-1.977-4.85 2.8a.5.5 0 0 1 -.581-.808l3-2.644-5.99 3.454a.5.5 0 0 1 -.564-.821l2.4-1.937-4.786 2.76a.5.5 0 0 1 -.591-.8l3.178-2.959-6.516 3.761a.5.5 0 0 1 -.548-.834l1.084-.806-2.842 1.641a.5.5 0 0 1 -.591-.8l3.185-2.973-6.537 3.774a.5.5 0 0 1 -.566-.82l2.53-2.071-5.01 2.896a.5.5 0 0 1 -.551-.832l1.43-1.079-3.313 1.912a.489.489 0 0 1 -.25.069z" fill="#fff"/><path d="m11.615 53.47a.5.5 0 0 1 -.262-.926l18.025-11.116-20.741 11.972a.5.5 0 0 1 -.511-.859l17.555-10.747-20.107 11.606a.5.5 0 0 1 -.512-.858l24.311-14.991-26.683 15.405a.5.5 0 0 1 -.512-.858l28.072-17.347-28.809 16.632a.5.5 0 0 1 -.511-.86l24.377-14.935-24.027 13.871a.5.5 0 0 1 -.512-.859l26.4-16.3-25.888 14.94a.5.5 0 0 1 -.512-.858l23.032-14.232-22.516 13a.5.5 0 0 1 -.508-.861l.479-.289a.5.5 0 0 1 -.486-.872l15.926-9.8-15.415 8.898a.5.5 0 0 1 -.514-.857l18.58-11.612-18.066 10.43a.5.5 0 0 1 -.515-.857l16.528-10.377-16.013 9.247a.5.5 0 0 1 -.511-.859l4.706-2.884-4.195 2.418a.5.5 0 0 1 -.511-.858l3.709-2.28-3.2 1.846a.5.5 0 0 1 -.517-.855l11.039-6.989-10.52 6.075a.5.5 0 0 1 -.514-.856l5.208-3.258-4.694 2.711a.5.5 0 0 1 -.513-.857l1.294-.8-.781.45a.5.5 0 0 1 -.523-.851l8.93-5.836-8.407 4.848a.5.5 0 0 1 -.528-.847l8.264-5.535-7.736 4.466a.5.5 0 0 1 -.525-.849l4.289-2.833-3.764 2.171a.5.5 0 0 1 -.545-.838l6.835-5-6.29 3.637a.5.5 0 0 1 -.556-.827l4.9-3.811-4.344 2.507a.5.5 0 0 1 -.542-.838l.47-.337a.5.5 0 0 1 -.485-.862l.689-.539-.132.075a.494.494 0 0 1 -.622-.1.5.5 0 0 1 -.032-.628l1.247-1.715h-.009a.5.5 0 0 1 -.5-.865l2.05-1.184a.5.5 0 0 1 .654.727l-1.248 1.722 4.27-2.462a.5.5 0 0 1 .557.826l-.688.539 2.365-1.365a.5.5 0 0 1 .542.839l-.418.3 1.974-1.139a.5.5 0 0 1 .557.827l-4.9 3.811 8.033-4.638a.5.5 0 0 1 .545.836l-6.835 5 10.1-5.832a.5.5 0 0 1 .525.849l-4.291 2.835 6.386-3.688a.5.5 0 0 1 .528.847l-8.258 5.531 11.047-6.378a.5.5 0 0 1 .524.851l-8.936 5.839 11.59-6.69a.5.5 0 0 1 .514.857l-1.3.808 2.886-1.665a.5.5 0 0 1 .514.856l-5.189 3.244 7.1-4.1a.5.5 0 0 1 .518.855l-11.04 6.988 13.589-7.843a.5.5 0 0 1 .512.858l-3.7 2.275 5.425-3.133a.5.5 0 0 1 .512.859l-4.731 2.9 6.511-3.759a.5.5 0 0 1 .516.856l-16.527 10.374 19.453-11.23a.5.5 0 0 1 .514.856l-18.572 11.607 21.593-12.463a.5.5 0 0 1 .511.858l-15.922 9.8 18.457-10.658a.5.5 0 0 1 .507.861l-.48.289 1.992-1.15a.5.5 0 0 1 .513.858l-23.013 14.218 26.112-15.076a.5.5 0 0 1 .513.858l-26.392 16.3 28.02-16.178a.5.5 0 0 1 .512.859l-24.4 14.95 24.628-14.214a.5.5 0 0 1 .513.858l-28.062 17.341 27.576-15.921a.5.5 0 0 1 .512.859l-24.312 14.994 23.8-13.742a.5.5 0 0 1 .51.86l-17.562 10.754 17.052-9.845a.5.5 0 0 1 .512.858l-18.032 11.12 17.52-10.111a.5.5 0 0 1 .511.859l-12.731 7.807 12.22-7.053a.5.5 0 0 1 .512.859l-13.071 8.074 12.559-7.246a.5.5 0 0 1 .513.858l-12.216 7.58 11.7-6.755a.5.5 0 0 1 .516.855l-13.248 8.338 12.735-7.353a.5.5 0 0 1 .513.858l-6.346 3.938 5.833-3.367a.5.5 0 0 1 .516.856l-7.929 4.986 7.413-4.279a.5.5 0 0 1 .516.855l-5.954 3.752 5.438-3.139a.5.5 0 0 1 .515.857l-2.394 1.5 1.879-1.085a.5.5 0 0 1 .532.846l-10.745 7.343 10.213-5.9a.5.5 0 0 1 .519.853l-.886.568.367-.212a.5.5 0 0 1 .526.849l-3.446 2.287 2.92-1.689a.5.5 0 0 1 .54.84l-5.236 3.725 4.7-2.71a.5.5 0 0 1 .53.846l-.393.266a.5.5 0 0 1 .4.895l-.768.542.229-.13a.5.5 0 0 1 .558.826l-1.512 1.184.954-.55a.5.5 0 0 1 .589.8l-1.135 1.045.516-.3a.5.5 0 1 1 .5.866l-4.423 2.555a.5.5 0 0 1 -.589-.8l1.133-1.044-3.195 1.844a.5.5 0 0 1 -.558-.826l1.514-1.185-3.485 2.011a.5.5 0 0 1 -.539-.84l.769-.544-2.399 1.384a.5.5 0 0 1 -.53-.846l.139-.095-1.629.941a.5.5 0 0 1 -.54-.839l5.235-3.725-7.908 4.564a.5.5 0 0 1 -.527-.849l3.446-2.282-5.424 3.131a.5.5 0 0 1 -.52-.853l.893-.571-2.468 1.424a.5.5 0 0 1 -.532-.845l10.745-7.339-14.181 8.184a.5.5 0 0 1 -.515-.856l2.4-1.5-4.091 2.356a.5.5 0 0 1 -.517-.855l5.946-3.745-7.972 4.6a.5.5 0 0 1 -.516-.855l7.927-4.985-10.117 5.84a.5.5 0 0 1 -.514-.857l6.35-3.937-8.308 4.8a.5.5 0 0 1 -.516-.855l13.259-8.342-15.935 9.191a.5.5 0 0 1 -.514-.857l12.214-7.582-14.621 8.439a.5.5 0 0 1 -.513-.858l13.059-8.066-15.459 8.924a.5.5 0 0 1 -.512-.858l12.746-7.818-15.035 8.676a.5.5 0 0 1 -.25.07z" fill="#ffbd17"/><path d="m21.37 59.47a.5.5 0 0 1 -.265-.925l3-1.864-4.718 2.719a.5.5 0 0 1 -.518-.855l10.205-6.463-12.674 7.318a.5.5 0 0 1 -.516-.855l11.479-7.221-13.857 8a.5.5 0 0 1 -.518-.854l16.359-10.37-17.773 10.258a.5.5 0 0 1 -.51-.859l1.22-.742-1.383.8a.5.5 0 0 1 -.517-.855l19.305-12.263-19.395 11.2a.5.5 0 0 1 -.516-.857l16.42-10.3-15.919 9.19a.5.5 0 0 1 -.516-.855l15.118-9.534-14.6 8.431a.5.5 0 0 1 -.516-.855l11.86-7.474-11.347 6.544a.5.5 0 0 1 -.52-.854l12.47-8-11.951 6.9a.5.5 0 0 1 -.515-.857l4.112-2.573-3.6 2.077a.5.5 0 0 1 -.52-.853l7.5-4.82-6.979 4.029a.5.5 0 0 1 -.52-.853l5.281-3.4-4.762 2.749a.5.5 0 0 1 -.537-.842l9.188-6.432-8.652 4.995a.5.5 0 0 1 -.539-.841l6.325-4.477-5.786 3.34a.5.5 0 0 1 -.554-.829l5.341-4.1-4.788 2.764a.5.5 0 0 1 -.567-.819l3.31-2.716-2.743 1.583a.5.5 0 0 1 -.6-.785l1.956-1.962-1.353.78a.5.5 0 0 1 -.6-.076.5.5 0 0 1 -.085-.6l.695-1.242a.5.5 0 0 1 -.2-.932l1.184-.682a.5.5 0 0 1 .686.677l-.605 1.082 3.043-1.76a.5.5 0 0 1 .6.785l-1.955 1.961 4.762-2.746a.5.5 0 0 1 .567.819l-3.309 2.716 6.125-3.535a.5.5 0 0 1 .554.829l-5.341 4.1 8.533-4.927a.5.5 0 0 1 .539.841l-6.328 4.471 9.215-5.32a.5.5 0 0 1 .538.842l-9.193 6.431 12.6-7.274a.5.5 0 0 1 .52.852l-5.279 3.4 7.371-4.256a.5.5 0 0 1 .52.853l-7.5 4.822 9.832-5.676a.5.5 0 0 1 .515.856l-4.113 2.574 5.941-3.43a.5.5 0 0 1 .521.853l-12.464 8 15.343-8.851a.5.5 0 0 1 .516.855l-11.872 7.482 14.443-8.338a.5.5 0 0 1 .516.855l-15.11 9.532 17.2-9.929a.5.5 0 0 1 .516.856l-16.416 10.297 16.422-9.48a.5.5 0 0 1 .517.854l-19.3 12.26 18.781-10.846a.5.5 0 0 1 .509.86l-1.229.746.717-.413a.5.5 0 0 1 .517.854l-16.358 10.375 15.844-9.147a.5.5 0 0 1 .516.855l-11.488 7.227 10.972-6.334a.5.5 0 0 1 .517.855l-10.2 6.458 9.68-5.589a.5.5 0 0 1 .514.858l-3.007 1.872 2.493-1.44a.5.5 0 0 1 .527.849l-11.718 7.8 11.191-6.46a.5.5 0 0 1 .529.848l-9.349 6.3 8.82-5.091a.5.5 0 0 1 .521.852l-2.614 1.694 2.093-1.208a.5.5 0 0 1 .526.85l-3.077 2.041 2.554-1.474a.5.5 0 0 1 .543.838l-5.209 3.761 4.666-2.693a.5.5 0 0 1 .542.838l-2.39 1.715 1.848-1.066a.5.5 0 0 1 .557.826l-2.2 1.723 1.646-.949a.5.5 0 0 1 .563.822l-.591.475a.5.5 0 0 1 .545.819l-.97.945a.493.493 0 0 1 .218.2.5.5 0 0 1 -.182.683l-2.376 1.371a.5.5 0 0 1 -.6-.791l.343-.334-2.063 1.191a.5.5 0 0 1 -.563-.822l.572-.46-2.219 1.282a.5.5 0 0 1 -.557-.826l2.2-1.722-4.417 2.548a.5.5 0 0 1 -.542-.839l2.39-1.714-4.424 2.553a.5.5 0 0 1 -.543-.838l5.209-3.76-7.966 4.598a.5.5 0 0 1 -.526-.849l3.082-2.044-5.014 2.893a.5.5 0 0 1 -.521-.852l2.609-1.692-4.406 2.544a.5.5 0 0 1 -.53-.847l9.356-6.304-12.395 7.151a.5.5 0 0 1 -.527-.848l11.717-7.8-14.975 8.648a.5.5 0 0 1 -.25.07z" fill="#eaecf4"/><path d="m13 31.5a.5.5 0 0 1 -.3-.9l3.582-2.638-6.002 3.465a.5.5 0 0 1 -.534-.845l1.237-.852-.7.406a.5.5 0 0 1 -.572-.815l3.616-3.055-3.047 1.756a.5.5 0 0 1 -.566-.819l.812-.665-.16.092a.5.5 0 0 1 -.6-.792l.955-.925a.489.489 0 0 1 -.209-.2.5.5 0 0 1 .182-.683l2.376-1.372a.5.5 0 0 1 .6.792l-.293.284 1.975-1.134a.5.5 0 0 1 .566.819l-.813.665 2.573-1.484a.5.5 0 0 1 .572.814l-3.616 3.056 6.7-3.87a.5.5 0 0 1 .534.844l-1.238.853 2.94-1.7a.5.5 0 0 1 .547.835l-3.578 2.638 6.016-3.47a.5.5 0 0 1 .564.821l-4.9 3.966 8.295-4.787a.5.5 0 0 1 .544.837l-3.237 2.35 5.523-3.187a.5.5 0 0 1 .55.832l-3.973 2.983 6.61-3.815a.5.5 0 0 1 .538.84l-2.321 1.64 4.3-2.48a.5.5 0 0 1 .54.84l-2.547 1.809 4.59-2.649a.5.5 0 0 1 .556.828l-4.437 3.43 7.381-4.26a.5.5 0 0 1 .553.83l-4.2 3.2 6.147-3.548a.5.5 0 0 1 .535.844l-.833.577 1.242-.717a.5.5 0 0 1 .542.839l-1.224.879 1.36-.785a.5.5 0 0 1 .587.8l-2.986 2.727 2.866-1.654a.5.5 0 0 1 .607.782l-1.321 1.353.727-.419a.5.5 0 0 1 .739.539l-.3 1.37a.493.493 0 0 1 .256.218.5.5 0 0 1 -.183.682l-.5.288a.5.5 0 0 1 -.738-.539l.244-1.128-2.892 1.669a.5.5 0 0 1 -.607-.782l1.32-1.352-3.7 2.137a.5.5 0 0 1 -.587-.8l2.986-2.727-6.117 3.529a.5.5 0 0 1 -.542-.839l1.223-.878-2.977 1.719a.5.5 0 0 1 -.535-.844l.836-.579-2.469 1.425a.5.5 0 0 1 -.552-.83l4.2-3.2-6.983 4.03a.5.5 0 0 1 -.555-.828l4.433-3.433-7.385 4.264a.5.5 0 0 1 -.54-.84l2.546-1.808-4.592 2.65a.5.5 0 0 1 -.538-.841l2.323-1.641-4.3 2.484a.5.5 0 0 1 -.55-.832l3.972-2.984-6.612 3.818a.5.5 0 0 1 -.544-.837l3.233-2.349-5.523 3.189a.5.5 0 0 1 -.565-.822l4.9-3.966-8.3 4.791a.491.491 0 0 1 -.258.071z" fill="#3b4463"/><g fill="#262626"><path d="m59.732 17.938c-.666-3.89 2.047-10.56-2.665-12.34-7.239-.292-14.543-.009-21.8-.1-17.787 1.102-4.682-6.998-31.196-4.998-7.214.2-2.558 19.579-3.797 25.116.02 8.151-.026 16.3 0 24.454.247 4.624 5.87 3.043 8.982 3.282-.467 3.345 1.493 6.287 5.033 6.162 10.224.019 20.447 0 30.671 0 3.724.417 6.2-2.623 5.771-6.163 3.2-.092 8.7.993 8.991-3.587-.093-10.604.171-21.229.01-31.826zm-57.358-15.752c4.743-1.668 10.634-.292 15.739-.681 6 2.05 6.263 6.263 14.315 5 4.457.969 26.584-2.575 25.84 2.7.084 2.023.052 4.059.024 6.092a6.462 6.462 0 0 0 -3.564-.646c.822-8.49-11.328-3.851-16.434-4.964h-26.741c-3.273-.503-7.053 1.023-6.288 4.942a5.687 5.687 0 0 0 -3.533.848c.427-4.331-.921-9.257.642-13.291zm4.349 12.414c-1.49-7.45 11.073-3.282 15.571-4.293q14.051.009 28.1 0c2.645.085 2.861 2.3 2.879 4.336-15.518-.014-31.032.057-46.55-.043zm4.315 10.839c2.564-4.226 23.386-.95 29.416-1.93 5.77-.468 9.829.044 8.824 7.015h-38.545c.067-1.578-.333-3.579.305-5.081zm38.229 29.532a3.345 3.345 0 0 1 -3.2 3.514c-10.656-.014-21.317.022-31.968 0-6.516-.212-2.193-21.569-3.368-27.013h38.55c-.073 7.828.113 15.67-.014 23.499zm9.009-29.571c-.434 8.722.873 17.869-.518 26.39-1.73 1.737-4.808.533-7.025.856-2.018-29.5 9.257-31.241-22.162-30.162-28.056-1.735-17.259 3.903-19.316 30.164-4.3.171-8.47.623-7.53-5.213.1-9.816-.177-19.648-.005-29.457.026-2.158 1.522-2.673 3.247-2.626 16.279-.007 32.556.036 48.83-.056 6.191-.896 4.172 6.277 4.479 10.104z"/><path d="m14.413 27.312c1.236.41 3.75-.75 1.01-.657-.323-.043-1.488.259-1.01.657z"/><path d="m20.407 27.3c.431-.013 1.123-.052 1.317-.491-.864-.561-3.983.571-1.317.491z"/><path d="m24.413 27.313c.518.251 3.222-.186 1.886-.66-.499-.005-2.315-.101-1.886.66z"/><path d="m21.268 41.061v4.763c-1.9-3.2-2.7-2.673-4.536.2v-5.085c-2.536-2.146-1.132 4.938-1.465 6.255.062 3.5 2.872-1.061 3.658-2.094 4.641 7.119 3.789 1.315 3.807-3.294.406-1.153-.976-1.923-1.464-.745z"/><path d="m31.276 41.194v4.679c-1.83-3.2-2.814-2.371-4.552.326-.351-1.41 1.1-7.071-1.448-5 .19 4.319-1.262 11.124 3.6 3.8 4.556 7.008 3.877 1.245 3.846-3.325.336-1.158-.837-1.31-1.446-.48z"/><path d="m41.268 41.062v4.762c-1.9-3.2-2.7-2.671-4.536.2v-5.086c-2.532-2.138-1.132 4.938-1.464 6.256.061 3.5 2.871-1.062 3.657-2.1 4.64 7.119 3.789 1.316 3.807-3.293.406-1.148-.976-1.916-1.464-.739z"/><path d="m46.574 47.535a1.077 1.077 0 0 0 -1.3.445c-.118.958 2.065.212 1.3-.445z"/></g></svg>