<svg id="Icons" height="512" viewBox="0 0 60 60" width="512" xmlns="http://www.w3.org/2000/svg"><path d="m3.656 49.5a.5.5 0 0 1 -.26-.927l17.868-10.9-17.984 10.385a.5.5 0 0 1 -.51-.86l21.272-13.033-20.762 11.986a.5.5 0 0 1 -.509-.859l17.809-10.852-17.3 9.988a.5.5 0 0 1 -.509-.86l17.809-10.851-17.3 9.983a.5.5 0 0 1 -.509-.859l17.583-10.71-17.074 9.86a.5.5 0 0 1 -.51-.859l19.71-12.053-19.2 11.085a.5.5 0 0 1 -.51-.859l18.13-11.086-17.62 10.17a.5.5 0 0 1 -.509-.86l12.782-7.786-12.273 7.085a.5.5 0 0 1 -.513-.857l19.547-12.152-19.034 10.99a.5.5 0 0 1 -.512-.859l13.637-8.415-13.125 7.577a.5.5 0 0 1 -.518-.854l19.217-12.232-18.7 10.8a.5.5 0 0 1 -.511-.859l4.077-2.5-3.565 2.054a.5.5 0 0 1 -.521-.852l16.2-10.5-15.679 9.051a.5.5 0 0 1 -.519-.854l11.233-7.206-10.714 6.186a.5.5 0 0 1 -.528-.849l12.614-8.433-12.086 6.977a.5.5 0 0 1 -.515-.856l.412-.258a.5.5 0 0 1 -.415-.9l1.216-.772-.7.4a.5.5 0 0 1 -.537-.842l8.067-5.653-7.528 4.348a.5.5 0 0 1 -.544-.837l6.139-4.466-5.6 3.23a.5.5 0 0 1 -.554-.83l4.357-3.348-3.8 2.2a.5.5 0 0 1 -.583-.806l3.089-2.761-2.5 1.445a.5.5 0 0 1 -.581-.807l.663-.588-.082.047a.5.5 0 0 1 -.645-.738l.592-.768a.5.5 0 0 1 -.16-.924l1.655-.957a.5.5 0 0 1 .645.738l-.4.518 2.181-1.256a.5.5 0 0 1 .581.806l-.663.588 2.416-1.394a.5.5 0 0 1 .583.8l-3.088 2.761 6.173-3.561a.5.5 0 0 1 .555.829l-4.357 3.346 7.236-4.175a.5.5 0 0 1 .544.837l-6.14 4.463 9.188-5.3a.5.5 0 0 1 .537.841l-8.065 5.652 11.248-6.493a.5.5 0 0 1 .519.854l-1.206.767 2.808-1.621a.5.5 0 0 1 .515.856l-.131.082 1.626-.938a.5.5 0 0 1 .529.848l-12.612 8.43 16.074-9.278a.5.5 0 0 1 .52.853l-11.234 7.204 13.961-8.057a.5.5 0 0 1 .521.852l-16.19 10.495 19.654-11.347a.5.5 0 0 1 .68.176.5.5 0 0 1 -.168.683l-4.1 2.513 5.841-3.372a.5.5 0 0 1 .518.854l-19.211 12.226 22.66-13.08a.5.5 0 0 1 .512.858l-13.641 8.416 16.067-9.274a.5.5 0 0 1 .514.857l-19.556 12.154 22.541-13.011a.5.5 0 0 1 .51.859l-12.784 7.785 14.977-8.644a.5.5 0 0 1 .511.859l-18.125 11.082 19.322-11.154a.5.5 0 0 1 .511.859l-19.7 12.048 19.588-11.311a.5.5 0 0 1 .509.86l-17.573 10.7 17.065-9.843a.5.5 0 0 1 .509.86l-17.821 10.854 17.313-10a.5.5 0 0 1 .509.859l-17.813 10.86 17.306-9.991a.5.5 0 0 1 .51.859l-21.265 13.029 20.756-11.983a.5.5 0 0 1 .51.859l-17.857 10.894 17.348-10.018a.5.5 0 0 1 .513.858l-22.926 14.228 22.415-12.94a.5.5 0 0 1 .509.86l-8.8 5.345 8.29-4.786a.5.5 0 0 1 .516.855l-20.762 13.052 20.249-11.691a.5.5 0 0 1 .514.858l-13.81 8.579 13.3-7.677a.5.5 0 0 1 .513.859l-9.226 5.7 8.714-5.031a.5.5 0 0 1 .513.857l-6.889 4.257 6.374-3.68a.5.5 0 0 1 .513.859l-3.839 2.368 3.327-1.92a.5.5 0 0 1 .523.852l-13.035 8.456 12.514-7.224a.5.5 0 0 1 .52.853l-7.864 5.032 7.345-4.242a.5.5 0 0 1 .521.854l-5.842 3.749 5.322-3.072a.5.5 0 0 1 .535.843l-9.85 6.834 9.317-5.378a.5.5 0 0 1 .531.845l-5.56 3.783 5.031-2.9a.5.5 0 0 1 .548.834l-6.073 4.513 5.526-3.191a.5.5 0 0 1 .545.836l-2.789 2.031 2.248-1.3a.5.5 0 0 1 .558.827l-1.968 1.538 1.412-.815a.5.5 0 0 1 .631.757l-1.855 2.181 1.225-.706a.5.5 0 0 1 .709.632l-.4.916a.492.492 0 0 1 .373.246.5.5 0 0 1 -.183.682l-.934.539a.5.5 0 0 1 -.709-.632l.33-.761-2.416 1.396a.5.5 0 0 1 -.63-.757l1.854-2.18-5.095 2.94a.5.5 0 0 1 -.557-.826l1.967-1.538-4.1 2.365a.5.5 0 0 1 -.545-.836l2.795-2.038-4.988 2.88a.5.5 0 0 1 -.548-.834l6.073-4.513-9.265 5.349a.5.5 0 0 1 -.531-.846l5.557-3.78-8.017 4.628a.5.5 0 0 1 -.535-.844l9.85-6.834-13.3 7.68a.5.5 0 0 1 -.521-.853l5.855-3.763-7.99 4.613a.5.5 0 0 1 -.52-.854l7.87-5.028-10.2 5.888a.5.5 0 0 1 -.522-.853l13.032-8.451-16.121 9.306a.5.5 0 0 1 -.513-.858l3.824-2.363-5.575 3.219a.5.5 0 0 1 -.513-.858l6.888-4.261-8.869 5.12a.5.5 0 0 1 -.513-.859l9.235-5.708-11.373 6.572a.5.5 0 0 1 -.513-.858l13.815-8.579-16.349 9.439a.5.5 0 0 1 -.516-.856l20.762-13.05-24.091 13.908a.5.5 0 0 1 -.51-.861l8.782-5.334-10.733 6.2a.5.5 0 0 1 -.514-.858l22.921-14.228-26.128 15.085a.494.494 0 0 1 -.25.067z" fill="#4b717a"/><path d="m15.835 43.47a.5.5 0 0 1 -.263-.925l9.2-5.693-11.345 6.548a.5.5 0 0 1 -.515-.856l15.753-9.852-18.548 10.708a.5.5 0 0 1 -.513-.858l13.511-8.327-15.5 8.946a.5.5 0 0 1 -.513-.858l17.088-10.553-16.91 9.763a.5.5 0 0 1 -.511-.86l13.379-8.2-12.868 7.431a.5.5 0 0 1 -.514-.857l20.453-12.755-19.939 11.511a.5.5 0 0 1 -.509-.86l2.029-1.223-1.515.874a.5.5 0 0 1 -.51-.859l6.591-4.026-6.086 3.511a.5.5 0 0 1 -.517-.854l17.15-10.879-16.633 9.599a.5.5 0 0 1 -.518-.854l14.351-9.131-13.833 7.986a.5.5 0 0 1 -.517-.854l10.878-6.908-10.361 5.98a.5.5 0 0 1 -.521-.852l11.012-7.127-10.491 6.056a.5.5 0 0 1 -.519-.853l6.458-4.134-5.939 3.425a.5.5 0 0 1 -.518-.855l3.231-2.055-2.713 1.565a.5.5 0 0 1 -.529-.848l7.328-4.937-6.799 3.93a.5.5 0 0 1 -.528-.849l3.988-2.665-3.46 2a.5.5 0 0 1 -.549-.834l6.046-4.5-5.5 3.173a.5.5 0 0 1 -.534-.844l.616-.425-.082.046a.5.5 0 0 1 -.567-.819l2.864-2.347-2.294 1.314a.5.5 0 0 1 -.622-.767l1.842-2.047-1.217.7a.494.494 0 0 1 -.6-.073.5.5 0 0 1 -.094-.595l.465-.87a.5.5 0 0 1 -.221-.932l1.167-.666a.5.5 0 0 1 .691.669l-.391.731 2.425-1.4a.5.5 0 0 1 .622.766l-1.847 2.045 4.878-2.811a.5.5 0 0 1 .567.819l-2.865 2.346 5.487-3.165a.5.5 0 0 1 .535.843l-.614.424 2.2-1.267a.5.5 0 0 1 .548.834l-6.046 4.5 9.246-5.334a.5.5 0 0 1 .674.169.5.5 0 0 1 -.146.679l-3.985 2.662 6.083-3.51a.5.5 0 0 1 .529.847l-7.329 4.939 10.022-5.786a.5.5 0 0 1 .519.854l-3.23 2.058 5.045-2.912a.5.5 0 0 1 .52.853l-6.457 4.134 8.638-4.987a.5.5 0 0 1 .522.852l-11.01 7.125 13.818-7.977a.5.5 0 0 1 .518.854l-10.878 6.906 13.447-7.76a.5.5 0 0 1 .519.854l-14.355 9.13 17.3-9.984a.5.5 0 0 1 .518.854l-17.145 10.872 20.316-11.726a.5.5 0 0 1 .51.859l-6.599 4.026 8.471-4.885a.5.5 0 0 1 .508.86l-2.03 1.229 3.437-1.989a.5.5 0 0 1 .514.857l-20.451 12.756 20.471-11.813a.5.5 0 0 1 .511.859l-13.379 8.2 12.868-7.435a.5.5 0 0 1 .512.858l-17.078 10.551 16.566-9.563a.5.5 0 0 1 .512.858l-13.532 8.339 13.02-7.515a.5.5 0 0 1 .514.857l-15.745 9.846 15.231-8.792a.5.5 0 0 1 .512.857l-9.209 5.7 8.7-5.02a.5.5 0 0 1 .516.855l-11.7 7.361 11.181-6.461a.5.5 0 0 1 .512.859l-2.732 1.686 2.223-1.283a.5.5 0 0 1 .523.852l-12.838 8.372 12.312-7.108a.5.5 0 0 1 .516.856l-3.525 2.217 3.009-1.737a.5.5 0 0 1 .525.851l-8.473 5.58 7.948-4.588a.5.5 0 0 1 .534.844l-8.86 6.123 8.326-4.807a.5.5 0 0 1 .529.848l-4.224 2.842 3.7-2.133a.5.5 0 0 1 .535.844l-3.66 2.533 3.123-1.8a.5.5 0 0 1 .565.82l-4.772 3.884 4.207-2.428a.5.5 0 0 1 .581.807l-2.557 2.259 1.973-1.148a.5.5 0 0 1 .583.806l-.494.441a.5.5 0 0 1 .605.7l-.49.945a.5.5 0 0 1 .242.932l-1.161.67a.5.5 0 0 1 -.6-.071.5.5 0 0 1 -.1-.592l.428-.827-2.575 1.496a.5.5 0 0 1 -.583-.8l.458-.409-2.105 1.209a.5.5 0 0 1 -.581-.807l2.553-2.256-5.307 3.063a.5.5 0 0 1 -.566-.82l4.773-3.88-8.15 4.7a.5.5 0 0 1 -.535-.843l3.655-2.535-5.852 3.378a.5.5 0 0 1 -.529-.847l4.228-2.845-6.4 3.692a.5.5 0 0 1 -.534-.843l8.856-6.121-12.059 6.964a.5.5 0 0 1 -.525-.85l8.476-5.578-11.131 6.428a.5.5 0 0 1 -.517-.855l3.531-2.221-5.334 3.076a.5.5 0 0 1 -.523-.851l12.837-8.372-15.978 9.223a.5.5 0 0 1 -.512-.858l2.727-1.683-4.401 2.541a.5.5 0 0 1 -.517-.855l11.707-7.36-14.235 8.215a.5.5 0 0 1 -.25.07z" fill="#426268"/><path d="m30.879 59.47a.5.5 0 0 1 -.307-.895l.623-.484-2.273 1.309a.5.5 0 0 1 -.556-.828l.553-.428-2.177 1.256a.5.5 0 0 1 -.613-.776l2.319-2.446-5.582 3.222a.5.5 0 0 1 -.573-.814l1.591-1.348-3.745 2.162a.5.5 0 0 1 -.574-.814l1.6-1.355-3.76 2.169a.5.5 0 0 1 -.578-.809l1.773-1.545-4.079 2.354a.5.5 0 0 1 -.554-.829l.39-.3-1.957 1.129a.5.5 0 0 1 -.564-.821l1.13-.911-3 1.732a.5.5 0 0 1 -.568-.818l1.364-1.125-3.37 1.943a.5.5 0 0 1 -.583-.8l1.913-1.708-4.355 2.508a.5.5 0 0 1 -.6-.786l2.254-2.252-4.556 2.63a.5.5 0 0 1 -.621-.767l1.965-2.174-1.534.885a.5.5 0 0 1 -.675-.691l.625-1.045a.5.5 0 0 1 -.146-.923l1.184-.677a.5.5 0 0 1 .678.691l-.49.815 2.609-1.506a.5.5 0 0 1 .621.767l-1.965 2.171 5.1-2.941a.5.5 0 0 1 .6.786l-2.255 2.253 5.266-3.04a.5.5 0 0 1 .583.805l-1.91 1.709 4.352-2.51a.5.5 0 0 1 .569.818l-1.364 1.124 3.368-1.942a.5.5 0 0 1 .565.821l-1.13.911 3-1.732a.5.5 0 0 1 .555.829l-.389.3 1.955-1.129a.5.5 0 0 1 .578.809l-1.777 1.548 4.084-2.357a.5.5 0 0 1 .573.814l-1.6 1.353 3.761-2.174a.5.5 0 0 1 .573.814l-1.592 1.349 3.748-2.163a.5.5 0 0 1 .613.776l-2.319 2.445 5.583-3.222a.5.5 0 0 1 .555.828l-.554.43 2.179-1.258a.5.5 0 0 1 .557.827l-.625.486 2.282-1.313a.5.5 0 0 1 .561.824l-.915.726 2.687-1.551a.5.5 0 0 1 .592.8l-2.113 1.98 4.814-2.778a.5.5 0 0 1 .584.8l-1.956 1.757 4.437-2.56a.5.5 0 0 1 .562.823l-1.01.807 2.824-1.63a.5.5 0 0 1 .6.791l-2.208 2.145 5.089-2.937a.5.5 0 0 1 .607.783l-2.29 2.328 5.387-3.109a.5.5 0 0 1 .585.8l-1.965 1.771 2.648-1.528a.5.5 0 0 1 .575.812l-.5.429a.5.5 0 0 1 .593.744l-.579.878a.5.5 0 0 1 .411.906l-1.728 1a.5.5 0 0 1 -.614-.089.5.5 0 0 1 -.054-.619l.567-.86-2.717 1.565a.5.5 0 0 1 -.575-.812l.468-.4-2.1 1.214a.5.5 0 0 1 -.585-.8l1.966-1.773-4.467 2.571a.5.5 0 0 1 -.607-.783l2.288-2.326-5.387 3.109a.5.5 0 0 1 -.6-.791l2.208-2.145-5.083 2.936a.5.5 0 0 1 -.562-.823l1.01-.807-2.827 1.63a.5.5 0 0 1 -.584-.8l1.952-1.756-4.435 2.556a.5.5 0 0 1 -.592-.8l2.112-1.981-4.812 2.781a.5.5 0 0 1 -.561-.824l.918-.728-2.69 1.552a.493.493 0 0 1 -.25.07z" fill="#aac7c8"/><path d="m3.418 55.506a.5.5 0 0 1 -.3-.9l3.846-2.866-5.564 3.212a.5.5 0 0 1 -.541-.839l2.124-1.519-1.161.67a.5.5 0 0 1 -.55-.833l1.063-.8-.123.07a.5.5 0 0 1 -.565-.821l.664-.537a.5.5 0 0 1 -.453-.7l.8-1.869a.5.5 0 0 1 .031-.846l.584-.338a.5.5 0 0 1 .71.629l-.614 1.437 3.582-2.056a.5.5 0 0 1 .565.821l-.31.251 1.859-1.072a.5.5 0 0 1 .55.833l-1.062.8 2.824-1.63a.5.5 0 0 1 .541.839l-2.118 1.509 4.086-2.358a.5.5 0 0 1 .549.834l-3.848 2.866 6.411-3.7a.5.5 0 0 1 .558.827l-4.542 3.538 7.563-4.367a.5.5 0 0 1 .545.836l-3.408 2.49 5.764-3.327a.5.5 0 0 1 .53.847l-.119.08 1.608-.928a.5.5 0 0 1 .543.838l-3.091 2.231 5.32-3.07a.5.5 0 0 1 .564.821l-4.89 3.941 8.257-4.765a.5.5 0 0 1 .559.826l-4.629 3.629 7.722-4.457a.5.5 0 0 1 .538.842l-2.267 1.6 4.226-2.439a.5.5 0 0 1 .537.842l-2 1.4 3.89-2.246a.5.5 0 0 1 .566.82l-4.932 4 8.361-4.826a.5.5 0 0 1 .558.826l-4.597 3.598 7.668-4.422a.5.5 0 0 1 .551.831l-4.171 3.161 6.92-3.993a.5.5 0 0 1 .566.82l-4.934 4.009 8.37-4.831a.5.5 0 0 1 .56.825l-4.667 3.68 5.472-3.159a.5.5 0 0 1 .582.808l-3.758 3.317 3.685-2.128a.5.5 0 0 1 .62.769l-2.046 2.251 1.914-1.105a.5.5 0 0 1 .607.782l-.183.188a.5.5 0 0 1 .534.719l-.156.3a.5.5 0 0 1 .223.932l-1.118.645a.5.5 0 0 1 -.7-.66l.087-.17-1.44.831a.5.5 0 0 1 -.607-.782l.106-.109-1.548.893a.5.5 0 0 1 -.62-.768l2.051-2.247-5.234 3.021a.5.5 0 0 1 -.581-.807l3.758-3.318-7.153 4.128a.5.5 0 0 1 -.56-.825l4.67-3.686-7.811 4.509a.5.5 0 0 1 -.566-.82l4.933-4.009-8.37 4.832a.5.5 0 0 1 -.552-.831l4.166-3.156-6.917 3.993a.5.5 0 0 1 -.559-.826l4.592-3.592-7.664 4.425a.5.5 0 0 1 -.565-.82l4.93-4.005-8.36 4.827a.5.5 0 0 1 -.537-.842l2-1.4-3.889 2.245a.5.5 0 0 1 -.538-.842l2.27-1.6-4.23 2.442a.5.5 0 0 1 -.558-.826l4.625-3.633-7.722 4.458a.5.5 0 0 1 -.565-.822l4.887-3.943-8.257 4.767a.5.5 0 0 1 -.543-.838l3.09-2.231-5.319 3.071a.5.5 0 0 1 -.53-.847l.12-.081-1.612.93a.5.5 0 0 1 -.549-.835l3.405-2.488-5.76 3.326a.5.5 0 0 1 -.558-.828l4.545-3.54-7.564 4.368a.493.493 0 0 1 -.25.068z" fill="#d4e6e7"/><path d="m16.392 27.47a.5.5 0 0 1 -.268-.923l11.464-7.247-13.921 8.039a.5.5 0 0 1 -.513-.859l6.968-4.3-7.8 4.506a.5.5 0 0 1 -.511-.859l6.547-4.03-6.781 3.915a.5.5 0 0 1 -.511-.859l4.334-2.659-4.107 2.371a.5.5 0 0 1 -.514-.857l10.459-6.5-9.958 5.744a.5.5 0 0 1 -.512-.857l6.65-4.115-6.138 3.544a.5.5 0 0 1 -.523-.851l15.352-10.014-14.829 8.562a.5.5 0 0 1 -.513-.858l1.316-.815-.8.463a.5.5 0 0 1 -.528-.848l12.186-8.163-11.661 6.735a.5.5 0 0 1 -.523-.851l6.629-4.329-6.106 3.524a.5.5 0 0 1 -.536-.843l8.567-5.986-8.031 4.636a.5.5 0 0 1 -.538-.842l5.67-3.986-5.132 2.962a.5.5 0 0 1 -.541-.84l3.561-2.541-3.02 1.742a.5.5 0 0 1 -.547-.835l2.23-1.646-1.683.97a.5.5 0 0 1 -.567-.819l1.868-1.532-1.3.751a.5.5 0 0 1 -.66-.718l1.354-1.946-.11.063a.5.5 0 0 1 -.5-.865l2.049-1.184a.5.5 0 0 1 .66.718l-1.353 1.945 4.652-2.683a.5.5 0 0 1 .567.819l-1.87 1.531 4.076-2.35a.5.5 0 0 1 .547.835l-2.23 1.645 4.301-2.48a.5.5 0 0 1 .671.162.5.5 0 0 1 -.13.678l-3.558 2.54 5.853-3.38a.5.5 0 0 1 .538.841l-5.667 3.985 8.363-4.826a.5.5 0 0 1 .536.842l-8.57 5.985 11.833-6.827a.5.5 0 0 1 .523.851l-6.626 4.325 8.97-5.176a.5.5 0 0 1 .528.847l-12.192 8.16 15.607-9.007a.5.5 0 0 1 .514.857l-1.3.808 2.881-1.665a.5.5 0 0 1 .524.851l-15.35 10.009 18.815-10.86a.5.5 0 0 1 .513.857l-6.665 4.12 7.9-4.558a.5.5 0 0 1 .514.857l-10.446 6.493 10.957-6.325a.5.5 0 0 1 .511.859l-4.341 2.658 4.216-2.434a.5.5 0 0 1 .511.858l-6.541 4.027 6.064-3.5a.5.5 0 0 1 .512.858l-6.961 4.3 6.449-3.724a.5.5 0 0 1 .517.856l-11.479 7.255 10.962-6.328a.5.5 0 0 1 .522.851l-13.142 8.549 12.62-7.285a.5.5 0 0 1 .517.855l-5.737 3.635 5.223-3.015a.5.5 0 0 1 .515.857l-1.517.953 1-.578a.5.5 0 0 1 .52.852l-4.546 2.932 4.026-2.324a.5.5 0 0 1 .535.843l-8.114 5.624 7.578-4.378a.5.5 0 0 1 .534.843l-4.971 3.436 4.437-2.561a.5.5 0 0 1 .533.845l-2.141 1.47 1.608-.928a.5.5 0 0 1 .534.844l-.533.369a.5.5 0 0 1 .552.831l-1.854 1.421 1.3-.751a.5.5 0 0 1 .62.769l-2.039 2.242 1.358-.784a.5.5 0 1 1 .5.865l-4.143 2.389a.5.5 0 0 1 -.62-.769l2.041-2.24-5.214 3.009a.5.5 0 0 1 -.554-.83l1.856-1.419-3.9 2.249a.5.5 0 0 1 -.534-.843l.537-.372-2.103 1.215a.5.5 0 0 1 -.533-.844l2.134-1.465-4 2.309a.5.5 0 0 1 -.534-.843l4.975-3.44-7.42 4.283a.5.5 0 0 1 -.536-.843l8.112-5.621-11.199 6.464a.5.5 0 0 1 -.523-.85l4.55-2.934-6.556 3.784a.5.5 0 0 1 -.515-.856l1.505-.945-3.122 1.8a.5.5 0 0 1 -.677-.173.5.5 0 0 1 .16-.682l5.755-3.644-7.8 4.5a.5.5 0 0 1 -.523-.851l13.144-8.549-16.279 9.4a.5.5 0 0 1 -.25.07z" fill="#2aa084"/><path d="m19.048 13.47a.5.5 0 0 1 -.306-.9l1.067-.825-2.474 1.428a.5.5 0 0 1 -.544-.837l1.088-.791-1.376.794a.5.5 0 0 1 -.561-.824l3.138-2.481-2.8 1.616a.5.5 0 0 1 -.6-.79l2.465-2.408-1.865 1.077a.5.5 0 0 1 -.673-.7l.867-1.366a.5.5 0 0 1 -.409-.907l1.657-.956a.5.5 0 0 1 .673.7l-.855 1.348 3.553-2.048a.5.5 0 0 1 .6.79l-2.464 2.404 5.271-3.043a.5.5 0 0 1 .561.824l-3.139 2.485 3.691-2.131a.5.5 0 0 1 .544.837l-1.088.791.651-.375a.5.5 0 0 1 .555.828l-1.068.827.513-.3a.5.5 0 0 1 .633.754l-1.531 1.823.895-.515a.5.5 0 0 1 .5.865l-3.351 1.936a.5.5 0 0 1 -.633-.754l1.531-1.824-4.464 2.578a.493.493 0 0 1 -.252.07z" fill="#fbdd4e"/><path d="m29.508 39.448a.5.5 0 0 1 -.3-.9l.311-.231-1.334.77a.5.5 0 0 1 -.552-.831l2.64-2-3.667 2.116a.5.5 0 0 1 -.55-.832l3.806-2.867-4.582 2.645a.5.5 0 0 1 -.537-.841l1.859-1.3-2.092 1.206a.5.5 0 0 1 -.536-.843l1.926-1.346-1.98 1.143a.5.5 0 0 1 -.556-.828l4.817-3.709-4.8 2.771a.5.5 0 0 1 -.547-.835l2.854-2.109-2.388 1.373a.5.5 0 0 1 -.543-.838l.844-.61-.076.043a.5.5 0 0 1 -.6-.788l2.241-2.217a.5.5 0 0 1 -.375-.917l3.185-1.839a.5.5 0 0 1 .6.788l-2.191 2.168 5.133-2.963a.5.5 0 0 1 .543.838l-.839.606 1.632-.941a.5.5 0 0 1 .546.835l-2.856 2.111 3.627-2.093a.5.5 0 0 1 .556.828l-4.818 3.715 5.522-3.188a.5.5 0 0 1 .536.843l-1.925 1.345 1.995-1.152a.5.5 0 0 1 .537.842l-1.855 1.3 1.743-1.006a.5.5 0 0 1 .551.832l-3.808 2.867 3.506-2.023a.5.5 0 0 1 .552.831l-2.637 2 1.916-1.106a.5.5 0 0 1 .548.834l-.813.6a.5.5 0 0 1 .242.933l-6.761 3.9a.491.491 0 0 1 -.25.07z" fill="#fff"/><path d="m22.17 55.507a.5.5 0 0 1 -.355-.853l1.308-1.316-2.6 1.5a.5.5 0 0 1 -.666-.71l1.307-1.963a.5.5 0 0 1 -.061-.9l1.17-.674a.5.5 0 0 1 .666.711l-1.066 1.6 4-2.308a.5.5 0 0 1 .605.785l-1.311 1.321 3.641-2.1a.5.5 0 0 1 .615.773l-1.423 1.52 3.975-2.3a.5.5 0 0 1 .576.812l-.539.462 2.213-1.267a.5.5 0 0 1 .58.808l-.708.621 2.477-1.429a.5.5 0 0 1 .632.756l-1.491 1.761 2.785-1.608a.5.5 0 0 1 .608.781l-.446.46.283-.163a.5.5 0 0 1 .7.655l-.234.47a.5.5 0 1 1 .5.865l-1.435.829a.5.5 0 0 1 -.7-.655l.235-.471-1.959 1.131a.5.5 0 0 1 -.609-.781l.448-.461-2.161 1.247a.5.5 0 0 1 -.632-.756l1.49-1.76-4.374 2.525a.5.5 0 0 1 -.58-.809l.708-.621-2.487 1.435a.5.5 0 0 1 -.575-.813l.538-.461-2.218 1.277a.5.5 0 0 1 -.616-.774l1.419-1.52-3.986 2.3a.49.49 0 0 1 -.247.068z" fill="#c1dadc"/><g fill="#262626"><path d="m59.723 54.9c-4.063-14.814-1.118-30.559-2-45.789-.29-3.842-5.434-1.974-8-2.383.49-3.328-.723-6.793-4.742-6.028h-26.842c-4.258-.44-8.975.311-7.881 5.84-7.812-.564-8.617.72-7.986 8.383.022 14.425.7 28.819-2.009 42.906 1.4 3.8 9.051.946 12.476 1.73q19.586 0 39.169 0c4.02-.232 9.164 1.559 7.815-4.659zm-7.458-12.893c-13.05 1.292-27.56.005-41.084.446-1.447.017-4 .691-3.446-1.686v-26.732c-.32-2.494.1-2.777 2.541-2.487.229 15.234-3.246 16.64 13.929 15.752-9.682 15.726 20.634 15.611 11.846.007 16.405 1.139 13.623-1.576 13.673-15.762.948.051 2.826-.541 2.541 1.056-.042 9.793.06 19.653 0 29.406zm-15.989-9.813c-.637 11.383-16.63 5.7-11.664-3.74 3.111-5.909 11.922-2.44 11.664 3.74zm-23.186-30.682c9.258-.6 18.75-.006 28.082-.21 2.6.111 6.891-.851 7.1 2.909-1.345 20.968 6.1 23.558-12.769 22.486-2.817-2.812-7.772-2.56-10.7 0-3.979-.836-12.378 2.535-13.087-3.214.832-5.609-1.829-18.183 1.374-21.971zm-9.361 8.239c-.405-3.651 4.326-1.913 6.546-2.288v2.962c-1.617-.081-3.857-.209-4.011 1.708-.046 6.484.03 12.986 0 19.477.836 3.13-2.278 12.158 2.436 11.938h35.207c8.548.06 10.682 1.911 9.827-8.184q0-11.089 0-22.179c.488-2.685-1.846-3-4.011-2.742v-3.172c2.182.307 6.317-1.135 6.552 2.136.025 12.345-.017 24.693 0 37.039h-52.546zm-.9 40.841.759-3.038h52.778q.867 3.472 1.735 6.944h-17.501c-.964-4.03-2.67-4.292-6.487-3.921-4.912.791-13.337-2.843-14.6 3.921h-17.686c.231-1.309.679-2.628.999-3.906zm36.171 3.908h-18.1c.741-1.381.669-3.781 2.752-3.075 4.5.063 9.041-.221 13.536 0 1.25.267 1.212 2.111 1.812 3.075zm19.055 3.948c-18.332 0-36.75 0-55.11 0-1.821.522-1.106-1.916-1.217-2.944h56.536c-.141.885.336 2.18-.212 2.942z"/><path d="m15.386 11.851c1.576 2.891 5.962 1.148 8.681 1.515 3.359-.205 2.612-3.9 2.657-6.264-.275-4.046-5.7-2.08-8.388-2.511-3.936-.031-3.136 4.596-2.95 7.26zm3.458.74c-1.875.333-2.327-1.636-2.139-3.1h3.571v3.1zm6.274-6.175c.227 3.192 1.3 7.129-3.394 6.175v-7.182c1.21.091 2.766-.395 3.394 1.007zm-7.733-.9a14.08 14.08 0 0 1 2.891-.111v3.1h-3.555c.039-.937-.279-2.38.664-2.985z"/><path d="m15.929 19.506c1.228-.084.9-2.139.633-2.911-1.583-.947-1.872 3.013-.633 2.911z"/><path d="m19.913 19.447c1.229-.061.907-2.057.657-2.822a1.014 1.014 0 0 0 -1.3.453c.182.722-.522 2.463.643 2.369z"/><path d="m24.066 16.477c-1.228.09-.892 2.163-.626 2.938 1.598.914 1.888-2.957.626-2.938z"/><path d="m24.474 22.721c-2.972.2-6.151-.418-9.024.274 1.176.833 5.037 0 7.084.284.46.063 2.634-.034 1.94-.558z"/><path d="m28.537 19.323c1.6.175 1.136-1.467 1.187-2.517a1.1 1.1 0 0 0 -1.448.388c.151.62-.343 1.858.261 2.129z"/><path d="m32.915 19.452c1.228-.063.906-2.064.655-2.829a1 1 0 0 0 -1.3.454c.182.723-.522 2.464.645 2.375z"/><path d="m36.917 19.46c1.228-.066.9-2.076.652-2.841a.992.992 0 0 0 -1.3.456c.182.73-.522 2.467.648 2.385z"/><path d="m34.722 23.426c.828-.163 2.945.5 2.95-.714-.503-.4-4.683-.153-2.95.714z"/><path d="m32.272 29.552c-1.591.284-2.162 2.432-3.263 3.492-.316-.723-1.905-.606-1.679.251q.5.5 1 1c1.9.586 2.727-2.709 3.977-3.759.32-.342.712-.936-.035-.984z"/></g></svg>