<?xml version="1.0" encoding="UTF-8"?>
<svg xmlns="http://www.w3.org/2000/svg" id="Icons" viewBox="0 0 60 60" width="512" height="512"><defs><style>.cls-1{fill:#e06262;}.cls-2{fill:#723131;}.cls-3{fill:#f9cc68;}.cls-4{fill:#262626;}</style></defs><path class="cls-1" d="M21.8,37.47a.5.5,0,0,1-.26-.927l.292-.179-1.8,1.038a.5.5,0,0,1-.517-.855L37.684,25.059,16.3,37.4a.5.5,0,0,1-.513-.857l14.7-9.088L13.261,37.4a.5.5,0,0,1-.516-.856L35.653,22.173,9.274,37.4a.5.5,0,0,1-.514-.856L33.639,21.035,5.422,37.326a.5.5,0,0,1-.514-.857l26.134-16.2L3.194,36.348a.5.5,0,0,1-.507-.862L3,35.3l-.552.318a.5.5,0,0,1-.506-.861l.294-.177-.352.2a.5.5,0,0,1-.513-.858l24.2-14.913-24.248,14a.5.5,0,0,1-.508-.861L8.828,27.31,1.28,31.667a.5.5,0,0,1-.514-.856l23.9-14.927L1.28,29.385a.5.5,0,0,1-.509-.861L5.49,25.668,1.28,28.1a.5.5,0,0,1-.515-.857l18.7-11.7L1.28,26.04a.5.5,0,0,1-.518-.854l18.9-12.014L1.28,23.782a.5.5,0,0,1-.514-.856l11.112-6.937L1.28,22.107a.5.5,0,0,1-.514-.857l7.865-4.9L1.28,20.594a.5.5,0,0,1-.524-.851L15.164,10.3,1.28,18.315a.5.5,0,0,1-.514-.856L3.418,15.8,1.28,17.035a.5.5,0,0,1-.519-.853l5.831-3.731L1.28,15.518a.5.5,0,0,1-.522-.852l5.533-3.591L1.28,13.968a.5.5,0,0,1-.521-.853l2.682-1.734L1.28,12.628a.5.5,0,0,1-.542-.839L8.105,6.5,1.28,10.438A.5.5,0,0,1,.745,9.6L3.731,7.526,1.28,8.94a.5.5,0,0,1-.55-.833L4.044,5.621,1.28,7.217A.5.5,0,0,1,.724,6.39L2.359,5.119l-1.02.589a.5.5,0,0,1-.614-.775L2.373,3.184a.5.5,0,0,1-.318-.928L4.738.706a.5.5,0,0,1,.615.775L3.791,3.138,8.191.6a.5.5,0,0,1,.557.827L7.11,2.7,10.747.6a.5.5,0,0,1,.55.833L7.983,3.916,13.732.6a.5.5,0,0,1,.536.843L11.285,3.508,16.326.6a.5.5,0,0,1,.542.839L9.5,6.728,20.118.6a.5.5,0,0,1,.522.852L17.953,3.188,22.439.6a.5.5,0,0,1,.523.852L17.428,5.041,25.124.6a.5.5,0,0,1,.52.853L19.817,5.179,27.752.6a.5.5,0,0,1,.515.856L25.611,3.113,29.97.6a.5.5,0,0,1,.524.85L16.086,10.892,33.916.6a.5.5,0,0,1,.515.857L26.554,6.362,36.539.6a.5.5,0,0,1,.515.856l-11.1,6.929L39.438.6a.5.5,0,0,1,.519.854L21.062,13.464,43.349.6a.5.5,0,0,1,.515.856l-18.7,11.7L46.915.6a.5.5,0,0,1,.509.86L42.689,4.323,49.144.6a.5.5,0,0,1,.514.856L25.763,16.378,53.1.6a.5.5,0,0,1,.508.86L45.57,6.306,55.115.8a.5.5,0,0,1,.513.858L31.448,16.559,56.993,1.811a.5.5,0,0,1,.507.861l-.361.217.563-.326a.5.5,0,0,1,.507.862l-.278.167.3-.173a.5.5,0,0,1,.514.857L32.621,20.468,58.711,5.405a.5.5,0,0,1,.515.857L34.342,21.775,58.72,7.7a.5.5,0,0,1,.515.857L36.324,22.933,58.72,10a.5.5,0,0,1,.512.857l-14.7,9.089,14.188-8.19a.5.5,0,0,1,.517.855L41.063,24.1,58.72,13.911a.5.5,0,0,1,.509.86l-.447.272a.5.5,0,0,1,.452.888L48.989,22.337,58.72,16.72a.5.5,0,0,1,.521.852L45.549,26.406,58.72,18.8a.5.5,0,0,1,.517.855l-7.456,4.724,6.939-4.006a.5.5,0,0,1,.522.852L50.355,27,58.72,22.17a.5.5,0,0,1,.526.85L50.9,28.561l7.818-4.513a.5.5,0,0,1,.529.848l-6.592,4.442,6.063-3.5a.5.5,0,0,1,.527.849l-3.211,2.142L58.72,27.28a.5.5,0,0,1,.545.837l-5.1,3.716L58.72,29.2a.5.5,0,0,1,.56.825l-3.894,3.08,3.334-1.924a.5.5,0,0,1,.572.815l-2.033,1.713,1.245-.719a.5.5,0,0,1,.588.8l-1.168,1.072a.5.5,0,0,1,.021.877l-2.683,1.55a.5.5,0,0,1-.588-.8l.39-.359-2.2,1.268a.5.5,0,0,1-.572-.815l2.032-1.712L49.949,37.4a.5.5,0,0,1-.56-.825l3.894-3.08L46.519,37.4a.5.5,0,0,1-.545-.837l5.1-3.715L43.187,37.4a.5.5,0,0,1-.528-.848l3.215-2.146L40.687,37.4a.5.5,0,0,1-.529-.847l6.592-4.443L37.587,37.4a.5.5,0,0,1-.526-.849l8.34-5.539L34.335,37.4a.5.5,0,0,1-.523-.851l8.89-5.774L31.226,37.4a.5.5,0,0,1-.518-.855l7.453-4.722L28.5,37.4a.5.5,0,0,1-.522-.852l13.7-8.834L24.9,37.4a.5.5,0,0,1-.515-.856l10.241-6.4L22.045,37.4A.5.5,0,0,1,21.8,37.47Z"/><path class="cls-2" d="M4.885,14.5a.5.5,0,0,1-.34-.867L7.721,10.7,1.28,14.414A.5.5,0,0,1,.711,13.6l2.622-2.172L1.28,12.609a.5.5,0,0,1-.571-.816l.549-.459a.5.5,0,0,1-.576-.8l.31-.3a.49.49,0,0,1-.271-.106.5.5,0,0,1-.17-.533L.8,8.76A.5.5,0,0,1,.78,7.886l.5-.289a.5.5,0,0,1,.73.573l-.148.5L3.729,7.6a.5.5,0,0,1,.6.791l-.053.051L5.735,7.6a.5.5,0,0,1,.572.816l-.55.46L7.97,7.594a.5.5,0,0,1,.569.817L5.92,10.581,11.1,7.592a.5.5,0,0,1,.59.8L8.51,11.327,14.984,7.59a.5.5,0,0,1,.579.808l-2.991,2.623,5.947-3.433a.5.5,0,0,1,.585.8l-3.123,2.833,6.3-3.638a.5.5,0,0,1,.547.835l-.865.638,2.552-1.474a.5.5,0,0,1,.574.813L22.256,10.81l5.589-3.227a.5.5,0,0,1,.556.828L26.514,9.873l3.968-2.291a.5.5,0,0,1,.582.807L28.012,11.1l6.1-3.524a.5.5,0,0,1,.588.8l-3.148,2.88,6.38-3.684a.5.5,0,0,1,.552.83L36.867,9.643l3.579-2.066a.5.5,0,0,1,.582.807l-3.041,2.7,6.07-3.5a.5.5,0,0,1,.583.806L41.565,11.13l6.161-3.557a.5.5,0,0,1,.55.832L46.889,9.45l3.254-1.878a.5.5,0,0,1,.563.823l-2.4,1.935,4.78-2.76a.5.5,0,0,1,.569.818L50.992,10.6l5.252-3.033A.5.5,0,0,1,56.8,8.4L54.978,9.8l3.743-2.161a.5.5,0,0,1,.548.834l-.936.693.394-.227a.5.5,0,0,1,.6.786L57.41,11.659l1.326-.765a.5.5,0,0,1,.7.648l-.58,1.212a.5.5,0,0,1,.389.913l-1.275.736a.5.5,0,0,1-.7-.648l.568-1.189-3.184,1.839a.5.5,0,0,1-.6-.785l1.923-1.933-4.713,2.72a.5.5,0,0,1-.548-.834l.934-.692L49,14.408a.5.5,0,0,1-.556-.828l1.823-1.406L46.4,14.409a.5.5,0,0,1-.57-.817l2.664-2.213-5.252,3.032a.5.5,0,0,1-.563-.822l2.4-1.938-4.782,2.761a.5.5,0,0,1-.551-.832l1.384-1.042-3.25,1.876a.5.5,0,0,1-.583-.806l3.074-2.748-6.16,3.556a.5.5,0,0,1-.582-.807l3.042-2.7-6.07,3.5a.5.5,0,0,1-.553-.83l1.616-1.233-3.576,2.065a.5.5,0,0,1-.588-.8l3.149-2.88-6.38,3.684a.5.5,0,0,1-.582-.807L26.735,10.9l-6.1,3.524a.5.5,0,0,1-.557-.828l1.888-1.462L18,14.424a.5.5,0,0,1-.574-.814L20.255,11.2l-5.589,3.227a.5.5,0,0,1-.547-.835l.865-.638-2.551,1.474a.5.5,0,0,1-.586-.8l3.123-2.833-6.3,3.638a.5.5,0,0,1-.579-.809L11.081,11,5.135,14.431A.489.489,0,0,1,4.885,14.5Z"/><path class="cls-3" d="M19.93,59.462a.5.5,0,0,1-.268-.922l3.569-2.267-4.744,2.74a.5.5,0,0,1-.522-.853l14.682-9.517L17.038,57.654a.5.5,0,0,1-.517-.854l13.062-8.292-13.008,7.51a.5.5,0,0,1-.517-.856L28.6,47.222,16.852,54a.5.5,0,0,1-.517-.856l9.578-6.025-8.744,5.048a.5.5,0,0,1-.523-.852L30.2,42.485,17.585,49.77a.5.5,0,0,1-.526-.85l12.28-8.151-11.328,6.54a.5.5,0,0,1-.531-.847l10.685-7.247L17.612,45.307a.5.5,0,0,1-.517-.856l.218-.138-.458.264a.5.5,0,0,1-.52-.853l2.611-1.676L16,43.75a.5.5,0,0,1-.52-.853L19.1,40.563l-4.007,2.313a.5.5,0,0,1-.532-.846l9.987-6.821L13.661,41.494a.5.5,0,0,1-.529-.848l9.56-6.44L12.315,40.2a.5.5,0,0,1-.517-.854l2.2-1.4L11.485,39.4a.5.5,0,0,1-.556-.829l3.391-2.63-3.769,2.175a.5.5,0,0,1-.592-.8l2.356-2.2-1.988,1.148a.5.5,0,0,1-.6-.787l.832-.828a.487.487,0,0,1-.211-.2.5.5,0,0,1,.182-.682l2.228-1.286a.5.5,0,0,1,.6.787l-.216.216,2.447-1.413a.5.5,0,0,1,.592.8l-2.357,2.2,6.341-3.66a.5.5,0,0,1,.557.828l-3.39,2.63,16.86-9.734a.5.5,0,0,1,.518.854l-2.208,1.4,2.186-1.262a.5.5,0,0,1,.53.848L25.663,33.41l9.828-5.674a.5.5,0,0,1,.532.846L26.037,35.4l10.309-5.951a.5.5,0,0,1,.52.853l-3.63,2.34,3.651-2.108a.5.5,0,0,1,.52.854L34.8,33.063,38,31.216a.5.5,0,0,1,.518.855l-.223.141,1.323-.764a.5.5,0,0,1,.53.847L29.465,39.541l13.246-7.647a.5.5,0,0,1,.526.849L30.956,40.9l14.827-8.561a.5.5,0,0,1,.523.852L32.752,42.018l15.49-8.944a.5.5,0,0,1,.517.856l-9.587,6.031,10.061-5.809a.5.5,0,0,1,.518.856L37.222,42.942l12.488-7.21a.5.5,0,0,1,.518.855L37.166,44.879l11.775-6.8a.5.5,0,0,1,.523.853L34.776,48.454l8.6-4.964a.5.5,0,0,1,.518.855l-3.568,2.264,1.54-.888a.5.5,0,0,1,.54.84l-3.11,2.219,2.818-1.627a.5.5,0,0,1,.562.825l-4.582,3.641L42.45,49.1a.5.5,0,0,1,.558.827l-2.935,2.288,2.652-1.531a.5.5,0,0,1,.569.818l-2.666,2.21,2.383-1.376a.5.5,0,0,1,.594.795L41.05,55.563l2.29-1.322a.5.5,0,0,1,.592.8l-1.249,1.169.668-.385a.5.5,0,0,1,.5.865L39.42,59.246a.5.5,0,0,1-.592-.8l1.249-1.17L37.9,58.534a.5.5,0,0,1-.594-.8l2.553-2.426L36,57.544a.5.5,0,0,1-.569-.817L38.1,54.516l-3.753,2.167a.5.5,0,0,1-.558-.828l2.938-2.291-3.969,2.291a.5.5,0,0,1-.562-.824l4.58-3.639L30.8,54.84a.5.5,0,0,1-.54-.84l3.11-2.22L20.18,59.4A.5.5,0,0,1,19.93,59.462Z"/><path class="cls-3" d="M23.177,30.84a.5.5,0,0,1-.3-.9L25.652,27.9l-1.109.639a.5.5,0,0,1-.567-.819l3.093-2.542-1.194.689a.5.5,0,0,1-.625-.763l1.977-2.239a.5.5,0,0,1-.234-.932l2.229-1.287a.5.5,0,0,1,.625.763l-1.822,2.063,3.805-2.2a.5.5,0,0,1,.567.819l-3.092,2.541,3.6-2.079a.5.5,0,0,1,.547.835l-2.775,2.046,2.845-1.643a.5.5,0,1,1,.5.865l-10.6,6.117A.493.493,0,0,1,23.177,30.84Z"/><path class="cls-4" d="M.276,32.144c.1,4.966,5.213,5.448,9.076,5.162,1.119,3.787,7.425,5.631,7.673,9.533-.258,4.1-4.119,11.833,2.358,12.6,3.5-.17,6.491-2.993,9.644-4.291,4.666-.567,10.31,7.928,14.722,2.393,2.156-3.813-1.693-8.609-.531-12.473,2.111-2.748,5.724-4.6,7.264-7.744,13.819,1.867,8.124-13.653,9.243-22.1C59.639,5.625,61.766-.7,49.085.7-6.831,2.773.569-10.261.276,32.144ZM20.348,8.333h37.94c-.021,1.76-.01,3.517-.012,5.277H1.724V8.333ZM45.293,41.644c-4.639,3.862-4.267,4.5-2.931,10.14.357,2.06,1.506,5.358-.99,6.541-4.19.7-7.523-4.314-11.666-4.4-3.419.751-8.69,6.6-11.827,3.626-2.348-3.624,1.212-8.433.6-12.367C14.918,41.08,4.167,34.065,16.2,32.838c9.831-.235,7.415-4.063,11.906-10.7,1.448-1.421,3.5-.464,4.371,1.062,1.838,2.616,2.452,7.408,5.343,8.836C44.824,32.962,55.2,33.42,45.293,41.644Zm12.983-9.925c.375,4.507-4.054,5.4-7.606,4.975.26-6.569-9.09-3.7-12.794-5.958-1.423-2.614-2.634-5.441-4.032-8.076-6.031-6.893-9.4,3.835-11.648,8.187-3.849,2.006-12.625-.419-12.937,5.875-4.557.688-8.22-1.811-7.534-6.64q0-7.845,0-15.692H58.276C58.272,20.166,58.282,25.943,58.276,31.719ZM3.013,2.534c2.4-2.211,5.823-.882,8.751-1.229H44.075c5.342.236,15.118-2.022,14.211,6.361H1.724C1.722,5.828,1.628,4,3.013,2.534Z"/><path class="cls-4" d="M12.284,25.6c-2.239.264-4.948-.567-6.957.392.171.982,4.507.155,5.645.415C11.515,26.6,13.643,26.019,12.284,25.6Z"/><path class="cls-4" d="M18.282,20.59c-4.225.329-8.979-.664-12.957.394-.141.292.121.426.393.426H16.231c.781-.095,1.874.284,2.443-.395C18.816,20.724,18.554,20.59,18.282,20.59Z"/></svg>
