<?xml version="1.0" standalone="no"?>
<!DOCTYPE svg PUBLIC "-//W3C//DTD SVG 20010904//EN"
 "http://www.w3.org/TR/2001/REC-SVG-20010904/DTD/svg10.dtd">
<svg version="1.0" xmlns="http://www.w3.org/2000/svg"
 width="500.000000pt" height="500.000000pt" viewBox="0 0 500.000000 500.000000"
 preserveAspectRatio="xMidYMid meet">

<g transform="translate(0.000000,500.000000) scale(0.100000,-0.100000)"
fill="#000000" stroke="none">
<path d="M2139 4039 c-8 -14 -14 -55 -14 -99 0 -59 5 -85 24 -123 23 -47 103
-137 139 -156 15 -8 18 -5 17 17 0 21 8 31 35 44 29 15 63 18 198 18 154 0
245 11 258 31 3 5 -21 70 -53 144 l-58 135 -206 0 c-113 0 -233 3 -266 6 -57
6 -62 5 -74 -17z"/>
<path d="M3220 3750 c-113 -14 -114 -18 -5 -19 276 -4 418 -96 418 -271 -1
-81 -28 -155 -93 -252 -84 -125 -92 -131 -79 -61 5 25 8 47 7 49 -2 1 -32 -16
-68 -37 -36 -22 -90 -51 -120 -65 -30 -13 -85 -40 -122 -60 -37 -19 -86 -38
-109 -42 -40 -7 -41 -8 -63 -77 -83 -263 -238 -385 -488 -385 -91 0 -100 2
-93 18 4 9 31 84 60 165 l53 148 -27 -5 c-14 -3 -145 -20 -291 -37 -146 -18
-269 -35 -273 -39 -17 -15 -158 -406 -164 -454 l-6 -49 92 6 c181 13 413 73
655 171 l132 53 63 -114 c35 -63 61 -116 60 -117 -2 -2 -22 -13 -44 -24 -50
-26 -27 -28 77 -7 149 32 306 129 402 251 23 29 93 92 156 140 141 107 347
313 416 414 101 147 146 258 146 365 2 211 -168 330 -487 340 -71 2 -164 0
-205 -5z"/>
<path d="M3068 3723 c7 -3 16 -2 19 1 4 3 -2 6 -13 5 -11 0 -14 -3 -6 -6z"/>
<path d="M1815 3320 c33 -34 165 -130 178 -130 5 0 29 81 25 84 -2 2 -57 22
-123 45 l-120 42 40 -41z"/>
<path d="M2668 3257 c-4 -19 -1 -27 8 -27 15 0 16 6 5 35 -7 17 -8 17 -13 -8z"/>
<path d="M2612 2913 c-39 -108 -70 -198 -68 -200 6 -6 86 36 123 65 62 47 124
157 147 264 6 25 2 27 -56 47 -34 12 -64 21 -68 21 -3 0 -38 -89 -78 -197z"/>
<path d="M1623 3057 c-22 -47 -93 -288 -93 -314 0 -59 34 -73 174 -73 l103 0
55 153 55 152 -111 5 c-61 3 -117 9 -125 14 -7 5 -21 26 -30 47 -17 37 -18 38
-28 16z"/>
</g>
</svg>
